<?xml version="1.0" encoding="UTF-8"?>
<svg width="256" height="256" viewBox="0 0 256 256" xmlns="http://www.w3.org/2000/svg">
  <!-- Background -->
  <rect width="256" height="256" fill="#2196F3" rx="24"/>
  
  <!-- Document icon -->
  <rect x="64" y="48" width="128" height="160" fill="white" rx="8"/>
  <rect x="64" y="48" width="96" height="20" fill="#1976D2" rx="8"/>
  
  <!-- Lines representing text -->
  <rect x="80" y="88" width="96" height="4" fill="#E0E0E0" rx="2"/>
  <rect x="80" y="104" width="80" height="4" fill="#E0E0E0" rx="2"/>
  <rect x="80" y="120" width="88" height="4" fill="#E0E0E0" rx="2"/>
  <rect x="80" y="136" width="72" height="4" fill="#E0E0E0" rx="2"/>
  
  <!-- People icons -->
  <circle cx="96" cy="168" r="8" fill="#2196F3"/>
  <rect x="88" y="180" width="16" height="16" fill="#2196F3" rx="8"/>
  
  <circle cx="128" cy="168" r="8" fill="#2196F3"/>
  <rect x="120" y="180" width="16" height="16" fill="#2196F3" rx="8"/>
  
  <circle cx="160" cy="168" r="8" fill="#2196F3"/>
  <rect x="152" y="180" width="16" height="16" fill="#2196F3" rx="8"/>
  
  <!-- Chinese characters -->
  <text x="128" y="40" font-family="Arial, sans-serif" font-size="20" font-weight="bold" fill="white" text-anchor="middle">户籍</text>
</svg>
